/* XPM */
static char *_6891_9a17d497fcfd4b3fa23cb07c8a0dafa8af804b589df7cf5e15d998f5bb585afc[] = {
/* columns rows colors chars-per-pixel */
"52 64 223 2 ",
"   c #000000",
".  c #080000",
"X  c #0F0B0C",
"o  c #250205",
"O  c #330609",
"+  c #1A262A",
"@  c #093033",
"#  c #23272A",
"$  c #312F32",
"%  c #263538",
"&  c #4B0400",
"*  c #520400",
"=  c #5C0000",
"-  c #4B1C0A",
";  c #521400",
":  c #591500",
">  c #551C00",
",  c #5A1B00",
"<  c #640000",
"1  c #760800",
"2  c #651C00",
"3  c #7C1700",
"4  c #5C2101",
"5  c #5B250C",
"6  c #52281A",
"7  c #632401",
"8  c #652901",
"9  c #692C03",
"0  c #73330A",
"q  c #652E12",
"w  c #693219",
"e  c #763A19",
"r  c #573325",
"t  c #53362D",
"y  c #6C3A25",
"u  c #763E23",
"i  c #793F24",
"p  c #713F2A",
"a  c #50443A",
"s  c #6E432F",
"d  c #7B4124",
"f  c #75412A",
"g  c #7A4229",
"h  c #7E4B36",
"j  c #7E4C36",
"k  c #003D47",
"l  c #0C4B4D",
"z  c #174A53",
"x  c #244445",
"c  c #364549",
"v  c #294F51",
"b  c #345959",
"n  c #006464",
"m  c #007979",
"M  c #31696A",
"N  c #366A6B",
"B  c #386D6D",
"V  c #387070",
"C  c #554C48",
"Z  c #4B5151",
"A  c #455658",
"S  c #565756",
"D  c #695C56",
"F  c #62615F",
"G  c #4B5D63",
"H  c #506C70",
"J  c #706A6A",
"K  c #787B7B",
"L  c #801D00",
"P  c #872500",
"I  c #8A3C06",
"U  c #9B3A00",
"Y  c #964307",
"T  c #864118",
"R  c #85431D",
"E  c #874725",
"W  c #84462B",
"Q  c #84492E",
"!  c #944F29",
"~  c #965029",
"^  c #9A532B",
"/  c #834C34",
"(  c #874E36",
")  c #84513B",
"_  c #8B5238",
"`  c #985838",
"'  c #B45E24",
"]  c #A25A34",
"[  c #B4602D",
"{  c #AD633C",
"}  c #B36335",
"|  c #B66538",
" . c #B86638",
".. c #BB693C",
"X. c #835C4C",
"o. c #955B41",
"O. c #9C5E41",
"+. c #9C634A",
"@. c #84675C",
"#. c #A36244",
"$. c #AB6543",
"%. c #AB6847",
"&. c #A3664A",
"*. c #A5694D",
"=. c #AB6B4D",
"-. c #B66A45",
";. c #B36E4E",
":. c #B96F4C",
">. c #B7704E",
",. c #BC714E",
"<. c #AB6D51",
"1. c #B16F50",
"2. c #AB725A",
"3. c #B37151",
"4. c #BC7451",
"5. c #B7775A",
"6. c #A87B69",
"7. c #C57245",
"8. c #CF7747",
"9. c #CF7847",
"0. c #C4744E",
"q. c #C9764D",
"w. c #D27946",
"e. c #D57B4A",
"r. c #D97E4B",
"t. c #C37651",
"y. c #C67A54",
"u. c #CD7C53",
"i. c #C57B5A",
"p. c #D47F54",
"a. c #A88476",
"s. c #DD834F",
"d. c #CF815E",
"f. c #DC8454",
"g. c #D78358",
"h. c #E38654",
"j. c #E68855",
"k. c #E78A58",
"l. c #D08B6B",
"z. c #DA987A",
"x. c #E88E60",
"c. c #6E7B86",
"v. c #6C7C86",
"b. c #717C88",
"n. c #00898A",
"m. c #298687",
"M. c #2E8C8C",
"N. c #2D9495",
"B. c #319392",
"V. c #3C9090",
"C. c #4C8587",
"Z. c #6D8588",
"A. c #6E848C",
"S. c #778586",
"D. c #71838D",
"F. c #6E8D94",
"G. c #738690",
"H. c #738C95",
"J. c #748F98",
"K. c #6D9199",
"L. c #74949C",
"P. c #78969D",
"I. c #759BA2",
"U. c #7A9CA3",
"Y. c #6AA5A9",
"T. c #75A3A9",
"R. c #78A6AC",
"E. c #76ACB2",
"W. c #7AABB1",
"Q. c #68B9BA",
"!. c #7BB5BA",
"~. c #79B6BB",
"^. c #77BFC2",
"/. c #7ABCC1",
"(. c #5ECACA",
"). c #6CC7C8",
"_. c #7BC2C6",
"`. c #79C9CB",
"'. c #7ACED1",
"]. c #67D5D6",
"[. c #77D6D7",
"{. c #7CD3D5",
"}. c #7DDADC",
"|. c #7EDEE1",
" X c #78E5E6",
".X c #77EDEE",
"XX c #7EEBEC",
"oX c #888A8A",
"OX c #889696",
"+X c #949999",
"@X c #A59088",
"#X c #85A1A7",
"$X c #99A4A4",
"%X c #AAAAAA",
"&X c #ACB2B2",
"*X c #B5B5B5",
"=X c #BBB9B7",
"-X c #C2998A",
";X c #C1A195",
":X c #C0B9B6",
">X c #C6BDBD",
",X c #84C9CD",
"<X c #81D8DB",
"1X c #80DDE0",
"2X c #81E3E5",
"3X c #83E6E9",
"4X c #83ECEE",
"5X c #82EFF0",
"6X c #8AEEF0",
"7X c #82F3F4",
"8X c #86F6F7",
"9X c #8AFDFE",
"0X c #91F6F8",
"qX c #D0C7C7",
"wX c #DAD4D4",
"eX c #E1DDDE",
"rX c #E4E1E2",
"tX c #E9E5E5",
"yX c #EBEBEB",
"uX c #F2ECEC",
"iX c #F3F4F4",
"pX c #F7F8F8",
"aX c #FEFEFE",
/* pixels */
"yXyXyXiXaXaXaXaXaXaXaXaXaXaXaXaXaXaXaXiXuXpXOX@ b v v z b X &XpXiXpXaXaXaXaXaXaXaXaXaXaXaXaXaXaXaXaXaXaX",
"yXyXyXiXaXaXaXaXaXaXaXaXaXaXaXaXaXpXiXoXb S [.7X XXXXXXX X7X^.Z c $XpXpXaXaXaXaXaXaXaXaXaXaXaXaXaXaXaXaX",
"yXyXyXiXaXaXaXaXaXaXaXaXaXaXaXpXiXK # ). X X.X,XI.E.R.E.U.<X.X|..X).. +XpXpXaXaXaXaXaXaXaXaXaXaXaXaXaXaX",
"yXyXtXiXaXaXaXaXaXaXaXaXaXpXiXK A }. X~.W.#XR. X^.b.L.S.`.}.I.!.W.^. X`.t OXpXpXaXaXaXaXaXaXaXaXaXaXaXaX",
"yXyXyXyXaXaXaXaXaXaXaXaXiXJ F ]. X8X`.H.H.J.A. X`.G.U.G.<X}.b.J.H.J.<X8X X).C oXaXaXaXaXaXaXaXaXaXaXaXaX",
"yXyXyXiXaXaXaXaXaXaXaXiXK ]. X/.!.E.|.W.J.I.I.v.b c c c b Z.U.I.H./.{.W.!.^.].(.oXpXaXaXaXaXaXaXaXaXaXaX",
"yXyXyXiXaXaXaXaXaXaXyXK ].9X~.A.D.H.W.2XC.# v * = : : : * - v o Y.|.R.H.D.G.,X9X].OXpXaXaXaXaXaXaXaXaXaX",
"yXyXyXpXaXaXaXaXaXyXS.]./.~.}.R.I.I.Z M a < : q y q w w y q : = Z M G I.L.!.}.E._.).oXiXaXaXaXaXaXaXaXaX",
"yXyXyXiXaXaXaXaXyXZ.].#XL.F.~. XH % r = 2 w 5 7.,.O.#.#.&._ 7 w : * t % C. XE.H.H._.(.b.iXaXaXaXaXaXaXaX",
"yXyXyXuXaXaXaXrXZ.).!.H.I.I.H.C.r * q r ` ;.u w.g.<.3.<.4.( ] u._ w 7 = t C.J.I.L.H.!.).S.iXaXaXaXaXaXaX",
"yXyXyXiXaXaXaXeXk 9X}.F.L.L.A * 7 w ` #.=.y.Q 8.u.&.;.=.1./  .k.0.$._ y 2 & H I.J.I.3X7X  iXaXaXaXaXaXaX",
"yXyXyXuXaXaXeXP.'.~.`.|.I.A ; p 0.-.=.1.=.t.W 8.u.*.;.<.3./ | f.:.t.<.$.#.q > G W.1X_.^.).+XuXaXaXaXaXaX",
"yXyXyXiXaXaXwXl 8XG.L.~.G * 7 w h.p.;.=.:.y.W 9.g.*.=.=.1./  .f.=.0.t.u.-.5 4 * H _.b.U..X@ yXaXaXaXaXaX",
"yXiXyXyXaXrXP.`.!.I.I.G.  w ` u f.e.:.;.0.t.p 9.u.&.,.>.1.)  .f.=.,.0.q.$.E :.2 @ J.I.I.~.).$XuXaXaXaXaX",
"yXyXyXiXaXqXn 7Xb.H.H.G - w =.g s.t.0.;.:.4.p 9.p.=.y.,.1./ | f.*.1.0.q.O.] r.7 6 H L.G.L.7Xl uXaXaXaXaX",
"yXyXyXiXtXOX)._.2X<XL.. w O.*.u f.4.:.;.4.4.p w.u.;.q.>.1.)  .f.*.>.q.t.o.~ r.O.: # U.|.1X^.).#XiXaXaXaX",
"yXyXyXpXqXm 7XL.{._.G - w 1.=.u s.4.,.0.0.4.s 8.u.;.q.>.1.( | f.*.1.,.t.O.~ h.%.7 6 H '.`.I.8Xn tXaXaXaX",
"yXyXyXpXwXm.3XL.G.v.o 9 ` =.%.u s.4.%.y.,.>.f w.u.:.q.>.1.(  .f.*.<.>.t.o.~ h.=.o.9 X A.D.T..XH tXaXaXaX",
"iXyXyXaXwXm 6XL.U.K.+ 0 1.1.=.u s.4.*.0.1.1.f 8.u.1.q.>.1.) } h.*.1.;.q.O.! h.1.<.2 % I.P.T..XN uXaXaXaX",
"yXyXyXeX$XQ.~.D.A.G - q =.1.=.f s.t.%.y.>.>.f w.u.:.t.>.4.) | p.*.1.:.u.$.~ h.1.*.7 6 H D.G.^.Q.%XiXaXaX",
"yXyXiX>Xn.9X'.<X`.  0 -.1.1.%.f s.4.=.>.%.3.f 8.p.t.:.,.t.h  .f.*.1.;.q.$.! h.1.*._ 2 + {.}.{.8Xn eXaXaX",
"yXyXiX>XV.8X{.1X`.  E k.=.%.*.d s.,.*.1.=.3.f 8.p.>.;.:.0.h  .g.*.=.:.u.$.! r.1.<.<.7 x '.}.<X7XH eXaXaX",
"yXyXiX>XB.4Xb.H.Z.  ! k.4.3.3.g j.y.3.3.>.4.g s.j.3.3.y.y.) ..k.<.1.>.y.#.^ k.1.1.<.0 # A.D.H.4XB rXaXpX",
"yXyXiX>XB.4XL.U.K.  8 { ) ) j 5 { ` j ) ) ( 6 ` $.( ) _ ` r E $./ / o.) p e { ) o.h & # I.I.I.5XV eXaXaX",
"yXtXiX>XB.6Xc.A.K  . .} ..' } ..{ } } ' [  . .| } | ' ' | | | } { [ '  . . .{ } '  ... .K D.H.4XV rXaXpX",
"yXyXiX>XM.8X'.E.I k.f.f.f.z.f.f.f.f.f.z.l.h.f.f.f.f.z.z.s.g.f.g.r.l.z.p.p.h.r.x.-Xg.j.e.s _.'.7XB rXaXaX",
"yXyXpX>XM.9X2X).I k.1.*.2.@X2.%.<.=.=.@X6.%.<.<.=.%.a.a.$.<.=.<.;.6.@X%.<.<.*.6.@X1.<.&.y {. X7XB rXaXaX",
"yXyXiX>XB.3Xb.v.@.7.#.` O.` ` O.O.O.+.^ ` O.O.O.+.#.` ` O.O.O.O.#.] ` #.O.O.O.] ^ O.O.O.J S.H.4XV rXaXpX",
"yXyXiX>XN.6XJ.U.F.- 4 > > 4 , 7 ; > > 4 > > 4 > ; > , 4 ; 4 > ; , > 4 : , 7 ; : > 4 : t P.I.T.5XV rXaXaX",
"yXyXiX>XB.4Xb.H.Z.o 0 ` Q / Q w ^ _ Q Q Q / w ! ^ Q Q Q ! i E ` Q / Q ( i e ` / ! / 8 # A.D.H.XXV rXaXpX",
"yXyXiX>XM.8X~._.E.  R k.3.3.<.i h.f.>.>.;.4.f e.h.1.1.1.i.` | h.<.3.1.3.O.^ k.;.t.=.7 % /._._.7XB rXaXaX",
"yXyXiX>XM.9X X6X[.  T j.=.;.=.u s.y.,.;.=.1.f 8.g.>.1.*.t.` } f.*.=.=.3.o.~ h.:.t.=.2 x |.3X4X7XN rXaXpX",
"yXyXiX>XB.4Xb.L.G.  T h.=.+.=.d s.4.,.;.=.3.p 8.g.0.4.=.y.` } f.*.=.=.3.o.~ j.0.0.,.8 + H.H.L.4XV rXaXaX",
"yXyXpX>XB.6XH.U.K.  T h.&.F +.d f.t.,.,.=.3.f w.u.;.,.,.u._ | f.*.>.=.3.O.~ j.,.;.,.8 + L.P.T.XXV rXaXpX",
"yXyXiX>XB.4Xb.H.Z.  ! s.A $XA 4 h.,.:.t.;.3.f w.u.:.,.,.0.h  .f.&.3.,.1.o.~ j.0.>.,.8 + H.G.F.4XB rXaXaX",
"yXyXiX>XB.6XE.~.R.  T h.D OXD 9 h.,.*.0.,.1.p 8.u.;.0.0.4.j  .g.=.>.0.3.o.~ j.,.;.,.7 % E.~.!.7XB rXaXaX",
"yXyXiX>XM.9XXX7X}.  T j.=.C +.d s.t.=.,.0.4.p e.u.*.,.0.4.j  .f.&.,.,.3.o.~ j.,.;.0.2 x  X5X7X8XN rXaXaX",
"yXyXiX>XB.6XH.I.F.  R j.=.C *.d s.,.*.1.,.4.p w.u.*.,.q.t.j ..f.&.,.,.1.O.~ j.0.0.:.8 + L.L.I.XXV rXaXaX",
"yXyXiX>XB.4XG.P.F.  R h.=.C &.d s.4.%.1.,.4.f 8.g.&.,.q.4.j  .f.*.3.0.3.o.~ j.0.t.*.8 # L.L.I.XXV rXaXpX",
"yXyXiX>XB.4XD.L.F.  R j.=.C *.d s.,.=.1.,.,.f 8.u.*.,.q.t.j  .f.&.,.,.3.o.~ h.;.0.*.8 # H.H.P.7XB rXaXaX",
"yXyXiX>XN.7XI.R.L.  R j.=.C *.d s.4.<.1.,.q.W 9.g.&.,.0.t.j  .f.*.,.,.3.o.~ h.;.t.=.7 # T.T.R.XXV rXaXpX",
"yXyXiX>XM.9X4X7X|.  T j.*.S +.d s.4.%.=.<.t.W 8.u.*.,.0.t.j  .g.3.t.0.t.o.~ h.;.0.:.2 x  X7X6X7XN rXaXaX",
"yXyXiX>XB.6XP.R.L.  E s.D +XS 8 h.4.=.<.=.t.W 8.u.*.,.0.4.j ..f.=.q.0.t.o.~ h.;.t.,.9 + I.T.R.4XB rXaXaX",
"yXyXiX>XB.6XA.L.F.  R s.S +XS 8 s.4.=.1.1.y.W 8.p.*.,.0.4./ | g.;.q.0.t.o.~ h.;.t.=.9 # H.L.P.7XV rXaXpX",
"yXyXiX>XN.4XG.I.F.  R j.+.D +.d f.4.*.1.=.y.E 8.u.*.1.;.1./  .g.;.,.:.y.o.~ h.;.t.*.8 # L.L.P..XV rXaXaX",
"yXyXiX>XB.4XH.U.K.  R j.>.*.%.u s.,.=.>.<.t.W 8.u.=.;.=.1.) | h.0.,.:.t.o.~ h.;.;.%.8 # L.P.T.XXB rXaXpX",
"yXyXiX>XM.9XXX5X}.  T h.1.=.=.d s.,.=.=.=.t.W 8.u.*.;.=.4.) | j.,.=.>.t.o.~ h.=.=.*.2 x  X4XXX7XN rXaXaX",
"yXyXiX>XB.7XR.!.T.  R h.1.1.=.d s.4.=.=.;.t.Q 8.p.*.;.=.1./ | k.>.=.;.u.$.~ h.=.1.=.7 % E.!.~.5XB rXaXaX",
"yXyXiX>XB.4Xb.J.A.  T h.>.=.=.u f.,.=.<.4.4.p e.u.*.1.<.3.( | j.0.,.=.t.$.~ h.=.<.*.8 + G.G.L.XXV rXaXaX",
"yXyXiX>XB.6XH.I.H.5 q ! f d i q E E u d E g q d W u d i g w e Q E d f d u 0 Q f d u 7 t L.I.I.4XB rXaXpX",
"yXyXiX>XN.4XA.A.X.e.r.w.e.w.e.r.w.e.r.s.w.e.e.e.w.r.w.e.e.r.e.w.e.w.e.e.r.r.e.e.w.e.s.w.D H.I.XXB rXaXaX",
"yXyXiX>XM.9X5X`.I k.y.0.i.;Xd.0.u.y.u.@Xl.0.y.y.y.8.@Xz.7.y.y.y.,.l.-X0.y.y.0.d.;Xy.y.,.f }.7X7XN rXaXaX",
"yXyXiX>XB.7X/.Y.Y k.=.&.<.a.=.*.<.*.=.6.2.%.<.=.<.=.6.6.*.<.<.<.*.2.6.*.=.<.%.2.6.=.<.#.s E._.XXB rXaXaX",
"yXyXiX>XB.6Xb.F.b.^ Q / Q T W W Q Q Q R W / Q Q Q / I E Q / Q Q ( E R / Q Q / W T / W ) c.G.L.4XV rXaXaX",
"yXyXiX>XB.6XH.U.K.o 7 ; ; , > 4 ; > : , > ; 4 ; ; , > > : , : ; ; > > ; , 4 ; : , , : $ I.I.I.XXV rXaXpX",
"yXyXiX>XB.4Xc.H.c.X e q.-.$.+.e 7.$.+.$.#.#.f  .-.o.$.$.+.h ] 7.#.$.$.%._ E q.+.#.O.8 # D.H.J.5XV rXaXaX",
"yXtXiX>XM.9X1X3X{.  T k.0.t.;.u h.t.=.0.4.3.f e.p.1.q.t.4.) ..f.,.t.3.y.O.~ k.1.3.=.2 x }.XX2X7XB rXaXpX",
"yXyXpX>XM.8X_.'.~.  R h.;.,.=.u f.,.*.0.;.1.f 8.u.;.0.t.t.h | f.=.;.0.t.o.~ h.=.<.%.7 % _.`.'.7XB rXaXaX",
"yXyXpX>XB.6Xc.G.Z.  R h.;.t.:.d s.4.;.,.=.3.f w.u.;.>.>.t.h | f.&.,.0.4.O.~ h.=.=.=.8 # A.D.H.XXV rXaXaX",
"yXyXiX>XV.5XK.U.F.  E h.;.1.7.d s.4.0.;.=.3.f 8.p.0.,.>.y.( } f.*.;.;.<.o.~ h.=.<.%.8 % L.I.I.XXH rXaXpX",
"yXyXiX=Xn.0XL.#XJ.+ ` x.5.5.5.( k.d.5.5.5.5.j f.x.t.5.5.d.#.,.x.2.5.5.5.+.` x.5.5.2.p $ U.U.#X8Xn eXaXaX",
"yXyXiXrX&Xn.x z k . O Y L L 1 o U U 3 3 3 L O P U 3 3 1 P = 1 U 1 3 3 P < * Y 3 3 1     z z z B.*XpXaXaX",
"yXyXtXpXiX%X*X*X*X=X*X=X:X:X:X*X=X=X:X:X:X:X=X*X=X:X:X:X:X=X*X=X:X:X:X:X=X*X:X:X:X:X*X*X*X*X&X%XaXaXaXaX",
"yXyXyXiXaXaXaXaXaXpXaXaXaXaXaXaXaXaXaXaXaXaXaXaXaXaXaXaXaXaXaXaXaXaXaXaXaXaXaXaXaXaXaXaXaXaXaXaXaXaXaXaX"
};
