/* XPM */
static char *_2143_a3bcd22539e51fcd4b653fc7ea31b449616ae59aab394c5f4e904e0b230a2619[] = {
/* columns rows colors chars-per-pixel */
"64 69 241 2 ",
"   c #020102",
".  c #0A0000",
"X  c #01030B",
"o  c #060805",
"O  c #130100",
"+  c #1B0A04",
"@  c #190504",
"#  c #040414",
"$  c #161717",
"%  c #09110C",
"&  c #260502",
"*  c #390605",
"=  c #26180A",
"-  c #241812",
";  c #34100F",
":  c #32251B",
">  c #332D11",
",  c #0B1528",
"<  c #17252A",
"1  c #1E2E35",
"2  c #2B2528",
"3  c #363329",
"4  c #2B3636",
"5  c #39393A",
"6  c #27312C",
"7  c #41120C",
"8  c #4A2A01",
"9  c #483B04",
"0  c #573806",
"q  c #5A3C1A",
"w  c #4B270F",
"e  c #6C3A08",
"r  c #563A29",
"t  c #4B3631",
"y  c #4F332C",
"u  c #65372C",
"i  c #564512",
"p  c #755607",
"a  c #644918",
"s  c #775715",
"d  c #6E4B04",
"f  c #72621A",
"g  c #594624",
"h  c #574739",
"j  c #4E4C35",
"k  c #77592B",
"l  c #675439",
"z  c #6E4B35",
"x  c #716336",
"c  c #0A3052",
"v  c #2E3C4A",
"b  c #523E42",
"n  c #3B4B54",
"m  c #39454A",
"M  c #004B60",
"N  c #494949",
"B  c #56494A",
"V  c #534E50",
"C  c #495658",
"Z  c #565857",
"A  c #4D504F",
"S  c #684845",
"D  c #695547",
"F  c #785A49",
"G  c #685856",
"H  c #7B5954",
"J  c #754D44",
"K  c #51615D",
"L  c #6A6445",
"P  c #7A6857",
"I  c #726E55",
"U  c #475965",
"Y  c #565B64",
"T  c #625A66",
"R  c #596669",
"E  c #5B6972",
"W  c #676968",
"Q  c #746969",
"!  c #676B74",
"~  c #6A7376",
"^  c #777776",
"/  c #6F726C",
"(  c #8B5605",
")  c #8B6711",
"_  c #A57506",
"`  c #865C2A",
"'  c #8B6C25",
"]  c #946B2A",
"[  c #98752B",
"{  c #886836",
"}  c #956E34",
"|  c #987636",
" . c #837024",
".. c #A77738",
"X. c #A57A2F",
"o. c #865748",
"O. c #865657",
"+. c #8B6648",
"@. c #977946",
"#. c #83675A",
"$. c #9A7556",
"%. c #877551",
"&. c #AC7B48",
"*. c #866B65",
"=. c #8F796B",
"-. c #75827E",
";. c #91822E",
":. c #B28C3B",
">. c #B58300",
",. c #CA9236",
"<. c #958655",
"1. c #A98647",
"2. c #B58C48",
"3. c #BD924A",
"4. c #B58C56",
"5. c #AD8F51",
"6. c #958776",
"7. c #A89576",
"8. c #B19371",
"9. c #B5A66E",
"0. c #BFA158",
"q. c #C59946",
"w. c #C79956",
"e. c #D29D56",
"r. c #C58E4F",
"t. c #CBA459",
"y. c #D7A65A",
"u. c #DCB559",
"i. c #D5A54B",
"p. c #E7B657",
"a. c #E6AD5E",
"s. c #C7996A",
"d. c #D8A863",
"f. c #DCB567",
"g. c #DDB374",
"h. c #D1AB6D",
"j. c #E4AB6C",
"k. c #EABB66",
"l. c #E5B56B",
"z. c #E3BA6A",
"x. c #EABA6D",
"c. c #E8B766",
"v. c #F1BC6A",
"b. c #E4BC72",
"n. c #ECBB72",
"m. c #EAB777",
"M. c #F4BA7B",
"N. c #CFC666",
"B. c #EBC26C",
"V. c #F3C267",
"C. c #EBC373",
"Z. c #F3C077",
"A. c #567287",
"S. c #687783",
"D. c #777A83",
"F. c #69778E",
"G. c #8C7E85",
"H. c #7A8488",
"J. c #7B8995",
"K. c #6A8387",
"L. c #7D96A9",
"P. c #838283",
"I. c #878889",
"U. c #8A8C96",
"Y. c #8A969B",
"T. c #979799",
"R. c #948E8B",
"E. c #AE998B",
"W. c #9CA59A",
"Q. c #A1A59D",
"!. c #B7A792",
"~. c #899AA7",
"^. c #979CA4",
"/. c #9298B3",
"(. c #A89CA5",
"). c #99A3A9",
"_. c #9BA9B4",
"`. c #92ADB3",
"'. c #A6A8A8",
"]. c #A7AAB3",
"[. c #AAB5BA",
"{. c #B7B6B8",
"}. c #B2ADAD",
"|. c #CAAB86",
" X c #CDB696",
".X c #CBB6AA",
"XX c #DAB191",
"oX c #B9C2BB",
"OX c #D6C391",
"+X c #E8C793",
"@X c #D0C7B1",
"#X c #E6CAA6",
"$X c #F7D7AB",
"%X c #F7D7B5",
"&X c #EED3B2",
"*X c #FCE1B7",
"=X c #A7B7C3",
"-X c #B7BBC5",
";X c #C1B3C2",
":X c #B8C6C9",
">X c #B6C7CC",
",X c #B7D1E0",
"<X c #C4CBCD",
"1X c #CDCCCD",
"2X c #C7C4C6",
"3X c #D1CBCB",
"4X c #C6CCD3",
"5X c #CDD2D5",
"6X c #C9D3D9",
"7X c #D6D7DA",
"8X c #CFD0CE",
"9X c #F9DAC3",
"0X c #E3DAD8",
"qX c #DDE2D5",
"wX c #EEE4D4",
"eX c #D6DAE2",
"rX c #CBDBE8",
"tX c #E3DCE1",
"yX c #E2DAF2",
"uX c #DAE4E5",
"iX c #DBE4EC",
"pX c #D4E5EB",
"aX c #D3E7EF",
"sX c #E4EAEE",
"dX c #EDECEC",
"fX c #E5E7E5",
"gX c #F3EAEB",
"hX c #EDF2EC",
"jX c #FAF7EB",
"kX c #E2EDF4",
"lX c #EDEDF6",
"zX c #F7EDF6",
"xX c #EBF5F8",
"cX c #F4F4F5",
"vX c #FBF5F3",
"bX c #F4FCF5",
"nX c #FDFEF4",
"mX c #F5F5FB",
"MX c #FDF6FC",
"NX c #F5FDFD",
"BX c #FEFEFE",
/* pixels */
"BXBXBXBXBXBXBXBXBXBXBXBXBXBXBXBXBXBXBXBXBXnXBXBXMXBXNXBXBXnXnXMXBXBXBXBXNXBXBXMXnXBXBXBXBXBXBXnXBXBXBXBXBXBXBXBXBXBXBXBXBXBXBXBX",
"BXBXBXBXBXBXBXBXBXBXBXBXBXBXBXBXBXBXBXMXBXBXBXBXBXNXnXBXMXBXBXBXNXnXMXBXBXnXnXbXBXBXBXBXBXMXBXBXBXBXBXBXBXBXBXBXBXBXBXBXBXBXBXBX",
"BXBXBXBXBXBXBXBXBXBXBXBXBXBXBXBXMXBXBXBXBXBXBXBXNXnXnXMXBXBXnXBXnXBXNXNXBXBXMXBXBXcXBXBXBXBXBXNXBXBXBXBXBXBXBXBXBXBXBXBXBXBXBXBX",
"BXBXBXBXBXBXBXBXBXBXBXBXBXBXBXBXBXBXBXBXBXBXBXBXnXBXNXBXNXBXBXnXBXBXnXnXBXBXnXnXBXBXBXBXBXBXBXBXBXBXBXBXBXBXBXBXBXBXBXBXBXBXBXBX",
"BXBXBXBXBXBXBXBXBXBXBXBXBXBXBXBXBXnXBXBXBXBXBXnXBXMXMXBXnXnXnXzXBXMXnXBXMXBXNXNXdXBXBXBXBXBXBXBXBXBXBXBXBXBXBXBXBXBXBXBXBXBXBXBX",
"BXBXBXBXBXBXBXBXBXBXBXBXBXBXBXBXBXBXBXBXBXBXBXnXBXBXmX7X{.W.I.tXnXmXfX7X5X.X].A 7XcXBXBXBXBXBXBXBXBXBXBXBXBXBXBXBXBXBXBXBXBXBXBX",
"BXBXBXBXBXBXBXBXBXBXBXBXBXBXBXBXNXBXBXBXBXnXjXfX:XT.#.s 0 . ! T.^ W x { ] s @ I.cXBXBXBXMXNXBXBXBXBXBXBXBXBXBXBXBXBXBXBXBXBXBXBX",
"BXBXBXBXBXBXBXBXBXBXBXBXBXBXBXBXBXBXBXBXMXfXW.V [ :.q.1.g l <.:.i.j.k.l.y.| P mXBXBXBXBXnXBXBXBXBXBXBXBXBXBXBXBXBXBXBXBXBXBXBXBX",
"BXBXBXBXBXBXBXBXnXBXBXNXBXMXMXBXnXMXBXnX2Xj :.a.b.w.:.r.t.l.C.Z.V.m.w...' B tXBXBXnXMXnXBXvXvXBXBXBXBXBXBXBXBXBXBXBXBXBXBXBXBXBX",
"BXBXBXBXBXBXBXBXBXBXBXNXbXMXBXBXNXNXNX3X0 f.n.x.f.d.l.n.n.n.l.d.,...] [ a 5 H.-.U.R./.'.Y.{.jXBXBXBXBXBXBXBXBXBXBXBXBXBXBXBXBXBX",
"BXBXBXBXBXBXBXBXBXMXBXBXNXnXnXNXBX2X=.F s.M.m.x.m.x.x.l.l.x.n.l.d.f.q.e.i.e.q.,.5.,.1.o T.nXBXMXBXBXBXBXBXBXBXBXBXBXBXBXBXBXBXBX",
"BXBXBXBXBXBXBXBXBXBXBXBXnXnXBXBXR.p t.l.p.C.g.p.l.x.x.x.l.x.l.c.x.b.x.n.n.n.m.M.V.M.( R.NXBXnXbXBXBXBXBXBXBXBXBXBXBXBXBXBXBXBXBX",
"BXBXBXBXBXBXBXBXBXnXBXBXnXNXBX}.( Z.C.B.v.p.l.z.l.x.x.x.l.x.l.x.n.j.z.B.f.f.n.b.t.8 E nXvXNXBXBXBXBXBXBXBXBXBXBXBXBXBXBXBXBXBXBX",
"BXBXBXBXBXBXBXBXBXnXBXBXBXBXdXl j.x.f.B.c.a.+Xm.x.x.x.l.x.x.l.x.l.x.l.k.x.x.y.&.e c {.I.Q.nXBXBXBXBXBXBXBXBXBXBXBXBXBXBXBXBXBXBX",
"BXBXBXBXBXBXBXBXMXnXBXBXnXMX(.X.V.l.m.k.l.r.i.c.l.n.x.l.l.x.n.l.x.x.m.c.c.k.e.;.i +.  2 dXNXMXBXBXBXBXBXBXBXBXBXBXBXBXBXBXBXBXBX",
"BXBXBXBXBXBXBXBXBXBXBXMXnXlXj u.m.n.c.n.M.2.| 2...t.b.l.z.l.l.l.B.l.m.l.b.x.m.f.i.f ^ dXBXMXBXnXBXBXBXBXBXBXBXBXBXBXBXBXBXBXBXBX",
"BXBXBXBXBXBXBXBXnXBXBXBXMXY.( C.z.u.x.a.h.3.} ` [ ] 1.f.y.d.V.d.l.k.l.j.B.m.c.l.C.' (.nXBXBXMXBXBXBXBXBXNXBXBXBXBXBXBXBXBXBXBXBX",
"BXBXBXBXBXBXBXBXBXnXbXMX8Xo i.y.X.w.+X..9 p { k g 0 8 } t.&.d.q.r.a.+Xw.y.k.g.n.j.b.' D.qXMXNXbXBXBXBXBXMXBXnXBXBXBXBXBXBXBXBXBX",
"BXBXBXBXBXBXBXBXMXnXBXnXW s 1.} ..d.b.4.h G O & 7.7.#.w 0 ;.:.w.s w.u.X.w.y.b.v.b.x.B.:.f ~.3XwXcXBXBXBXBXBXBXMXBXBXBXBXBXBXBXBX",
"BXBXBXBXBXBXBXBXBXBXhXR.X 9 q ] w.t.2.m.I OX!. X X9X+XOX#.; ] 2.} k a q } 4.V.c.M.l.m.m.t.( O X 2XcXBXBXBXBXBXnXBXBXBXBXBXBXBXBX",
"BXBXBXBXBXBXBXBXBXbX7XQ '.}.0 X.:.1.2.g.x $X*X9X%X$X$X%X%XE.& ) a   L L   { i.w.q.1.) ( * S W.pXBXBXBXcXBXBXBXBXBXBXBXBXBXBXBXBX",
"BXBXBXBXBXBXBXBXnXBXMXMXnXiX7 ..&.&.r.g.g *.8.@X$X%X%X%X%X%X|.$.+.3 #X8.  g ..' e * Z /.3XgXnXNXBXBXBXBXBXBXBXBXBXBXBXBXBXBXBXBX",
"BXBXBXBXBXBXBXBXNXBXBXnXMX<Xw | d ..} t.l E.7.=.6.&X*X9X%X$X%X&X$X#X&X%X|.r p r T.<XMXMXMXBXbXMXNXBXBXBXBXBXBXBXBXBXBXBXBXBXBXBX",
"BXBXBXBXBXBXBXBXnXMXBXbXnX{.8 k 6.l a 2.F 9X%X@X6.D #X%X%X%X9X%X%X%X%X%X.X. Q uXnXBXMXnXBXNXnXBXnXMXBXBXBXBXBXBXBXBXBXBXBXBXBXBX",
"BXBXBXBXBXBXBXBXnXnXBXBXnXU.o *.|.I i [ 6.s.# h Z X   !.9X%X&X&X%X%XXX=.F 6 dXBXBXBXBXBXBXBXBXBXBXBXBXBXBXBXBXBXBXBXBXBXBXBXBXBX",
"BXBXBXBXBXBXBXBXBXBXBXMXhXZ N F & % | d E.XXlX[.  =.Z o !.h.%X XXX=.Z @X+.R.NXBXBXBXBXBXBXBXBXBXBXBXBXBXBXBXBXBXBXBXBXBXBXBXBXBX",
"BXBXBXBXBXBXBXBXBXBXBXMXMX5XA @.j o ` 0  X$X}.J.  t T.tX.X+X+X!.I , = *.9 2XNXBXBXBXBXBXBXBXBXBXBXBXBXBXBXBXBXBXBXBXBXBXBXBXBXBX",
"BXBXBXBXBXBXBXBXNXnXBXBXBXnXT.F #.. { a  X%X9.F j . R.wX%X%X&X%X6.R =X6.  rXBXjXBXBXBXBXBXBXBXBXBXBXBXBXBXBXBXBXBXBXBXBXBXBXBXBX",
"BXBXBXBXBXBXBXBXnXBXMX0X8XqX}.. l g :.k  X%X*X$X.X7.=. X#X&X9X%XG o }.!.+ lXnXBXBXBXBXBXBXBXBXBXBXBXBXBXBXBXBXBXBXBXBXBXBXBXBXBX",
"BXBXBXBXBXBXBXBXMXBX].T T.Y.I > > = &.{ 7..X6.Q #.5.4.$.$.$.9.#X XI x 0 Q hXBXBXBXBXBXBXBXBXBXBXBXBXBXBXBXBXBXBXBXBXBXBXBXBXBXBX",
"BXBXBXBXBXBXBXBXmXQ.  ~ 4XaX:X> q > :.<.y z ;.i.f.c.B.x.f.l.t.2.7.&X7.p #.mXbXBXBXBXBXBXBXBXBXBXBXBXBXBXBXBXBXBXBXBXBXBXBXBXBXBX",
"BXBXBXBXBXBXBXBX/ W 7X^.$ < Y X   o { e.l.k.C.Z.v.n.l.v.c.c.n.M.e.h g $.: gXBXBXBXBXBXBXBXBXBXBXBXBXBXBXBXBXBXBXBXBXBXBXBXBXBXBX",
"BXBXBXBXnXmXBX}.W kXxXmXrX~.R f i # 0 i.m.f.s.5.| s.j.u.b.m.Z.x.C.s.1.k oXMXNXBXBXnXBXBXBXBXBXBXBXBXBXBXBXBXBXBXBXBXBXBXBXMXBXnX",
"BXBXBXBXBXBXmX}.Y Y.D.{.rX>XS.0.f.r i 2.x.d.8     g k { 5.0.4.r.c.C.d.G bXBXNXBXBXBXBXBXBXBXnXBXMXBXBXBXBXBXmXbXMXBXBXnXBXBXBXBX",
"BXBXBXBXBXBXBXBX-X  o . Z ).~.%.7.<.7 a w.t.y.d.t.d.d.d.w.2.| q r $...].BXNXMXnXBXNXBXMXBXMXNXBXBXBXBXcXBXBXBXBXnXnXcXdXuXxXdXBX",
"BXBXBXBXBXBXBXBX'.& G t . V E %.h.I v # a @.w.x.v.n.n.C.n.v.l.f.;.z p .XnXBXBXjXBXBXBXBXBXBXBXBXBXBXBXBXnXcX7X}.T.P.Q ~ ~ Y N ^.",
"BXBXcXBXBXBXMXcXZ u *.o.S -   ; N.N.3 K V & 7 ] 2.w.j.u.f.x.k.n.Z.8.X @XnXmXNXnXBXBXBXBXnXBXBXmXBXBXcX8XR./ I.{.5XfXfXeX=XL.< 1X",
"BXBXBXBXBXBXBXcXj o.H o.*.r y & g f.9.1 E ].^.< & d ( ..&.d.w.1.t.h   {.BXnXbXBXBXBXbXBXBXmXBXBX7X'.^ T.5XMXBXBXBXsX1X6X=X< ).BX",
"BXBXBXBXBXBXnXhXZ S O.o.=.u w w # 9 0.<.n >XxXeX4X].A o w 0 d O . 2 /.P.zXNXBXMXBXBXBXmXBXBX5XR.6.-XcXBXBXmXsXeX<X-XkXkXR ! NXnX",
"BXBXBXBXBXBXBXMXW z H o.#.S ; ; n W./ d q E >XkXxXsX~ A.J.Y.J.n %.<.).K dXNXMXBXBXBXBXBXBX}./ 0XmXNXcXcXmXeX:X<XlXBXNXY.N cXBXnX",
"BXBXBXBXBXBXBXBX(.* o.o.=.H m   X >XkX[.W   W ~.4X>Xc A.,X).6XW h.x o R.bXBXMXBXnXBXmXBX}.5 cXBXgXcXNXaX=X[.dXBXBXcX}.A cXMXBXBX",
"BXBXBXBXBXBXBXBXtX+ F #.B G.T.Z K.2 I.4X! y :     2 1 /.c F.U.f ;.I eXNXNXBXjXNXBXBXcXP.2 gXbXhXbXiX).R ~.mXNXcXBX}.A fXBXBXBXBX",
"BXBXBXBXBXBXBXBXBXW.O b C H.P.H.).T.N   S D   - y O A Y v H.5 > H fXnXBXNXMXjXNXmXoX$ Q gXNXNXuX_.m F.^.iXBXBXdX^ / lXBXBXBXBXBX",
"BXBXBXBXBXBXBXBXBXNXV T.xXkXdXfXrXK.  u *   W N ; - <   Y v + v yXnXbXMXBXnXdX2XY / 2XnXmXiX).n U ~.[.<XBXmX1XZ }.BXBXBXBXBXBXBX",
"BXBXBXBXBXBXBXBXBX5X$ S.6XaXkXxX7XC R I.:X6XlX2XX ; E pX=X  o T W W.fXfX0X=.! ^.8XMXnXfX_.n U L./.=X>XxXvXQ.^ 7XBXBXBXBXBXcXBXBX",
"BXBXBXBXBXBXBXBXlX3 ^ E R ].>X6X:XE N U.aXkXeXrXj X _.1Xv I <XG 3XV . < N {.mXnXMXfX^.C U L.`.~.=X=XkX<XW {.BXMXBXBXBXBXBXBXBXmX",
"BXBXBXBXBXBXBXBXfXR ^ K $ U ~.`.>XY.$ Z U.~./.~.2 J.~.6 . 7XmXP.s..X  Y `.rX7X0X[.~ }.^.~.L.F.E R W H.T.dXvXBXBXBXcXBXBXBXBXBXBX",
"BXBXBXBXBXBXBXBXBXBXhX7XW X N U._.;X~ 5 E ! Y $ J.).# ^.L..XbX_.>.9.6 P M Y H.B J.uXkX~.A., 4 H.{.1X7XNXBXBXBXMXBXbXBXBXnXBXBXnX",
"BXBXBXBXBXBXBXBXnXNXBXuXB y < v ! R m 1 Y E C < S.2 Y -XY.T.nXU.,.y.x $. XOXI.F.:XNXT.  Q :XfXBXBXBXBXBXBXBXBXBXBXBXBXBXBXBXBXBX",
"BXBXBXBXBXBXBXBXnXBXsXb z O.S 6 [.iX4X=XY.D.! ! Y.^.n >X~ A }.Z d.9.S.8.h./ K./.5X^.! 8XNXBXBXcXnXBXBXBXBXBXBXBXBXBXBXBXBXBXBXBX",
"BXBXBXBXBXBXBXBXBXNX<X* o.O.H F % I.iXNXlXlXNXkXpX[., R 2 u * # r.=.Z %.e L L.F.N ^.BXmXnXBXBXBXBXBXBXBXBXBXBXBXBXBXBXBXBXBXBXBX",
"BXBXBXBXBXBXBXBXMXBX}.7 #.l H u A < C -X:X4X[.).~ @ & O @ t b   Q j.p.r.3 h 1 O 8XBXBXBXBXBXBXBXBXBXBXBXBXBXBXBXBXBXBXBXBXBXBXBX",
"BXBXBXBXBXBXBXBXNXBX{.. o.P o.< ~.J.X < v % X X hX}.  3 $ # X r , @ _ p.3.# o oXBXBXnXBXBXnXBXBXBXBXBXBXBXBXBXBXBXBXBXBXBXBXBXBX",
"BXBXBXBXBXBXBXBXMXnXgX5 ; F * ! -XE J._.`.[.4XH.-.I.5 3 : 2 - @   '.}.8 a.;.C vXMXnXMXBXBXBXMXBXBXBXBXBXBXBXBXBXBXBXBXBXBXBXBXBX",
"BXBXBXBXBXBXBXBXBXbXBX8X  @ n Y iXD.J.[.rXxXxX:X. O =   & @ . W T.MXvX2Xh _ W.BXBXBXBXMXBXBXBXBXBXBXBXBXBXBXBXBXBXBXBXBXBXBXBXBX",
"BXBXBXBXBXBXBXBXBXBXNXBXI., `.! 6XY.H.eXxXiXxX].p L <X7X/ b 3XNXBXBXBXnXT.. eXNXNXBXBXBXBXBXBXBXBXBXBXBXBXBXBXBXBXBXBXBXBXBXBXBX",
"BXBXBXBXBXBXBXBXbXBXMXuXW I.-X].4X].Z :XeXiXlX^ & S vXBXbXbXBXBXBXBXBXBXdX1XBXBXBXBXBXBXBXBXBXBXBXBXBXBXBXBXBXBXBXBXBXBXBXBXBXBX",
"BXBXBXBXBXBXBXBXBXBX-XB Z R =XpXpXeXH.Z R U.U.  }.gXnXBXBXmXBXMXBXBXBXBXBXcXBXNXBXBXBXBXBXBXBXBXBXBXBXBXBXBXBXBXBXBXBXBXBXBXBXBX",
"BXBXBXBXBXBXBXBXBX{.4 -XT.  [.kXxXxX4X'.^.~   4 fXBXbXmXBXBXBXBXBXBXBXBXMXBXBXMXBXBXBXBXBXBXBXBXBXBXBXBXBXBXBXBXBXBXBXBXBXBXBXBX",
"BXBXBXBXBXBXBXBX5X  V ).`.S.X ).aXkX'.X A I.5 {.NXmXBXBXMXBXBXBXBXBXBXBXmXnXBXBXBXBXBXBXBXBXBXBXBXBXBXBXBXBXBXBXBXBXBXBXBXBXBXBX",
"BXBXBXBXBXBXBXBXH.O = 4 ~._.U.T Y Y 4   ^.-XZ hXBXMXBXBXBXBXMXBXBXBXBXBXBXBXBXBXBXBXBXBXBXBXBXBXBXBXBXBXBXBXBXBXBXBXBXBXBXBXBXBX",
"BXBXBXBXBXBXBXBX{.  h & < S.-XpX6X! Y ^ W   {.BXBXBXMXBXBXBXNXnXBXBXBXBXBXnXBXBXBXBXBXBXBXBXBXBXBXBXBXBXBXBXBXBXBXBXBXBXBXBXBXBX",
"BXBXBXBXBXBXBXBXMX=.O S y   < Y.5X^ / P./ {.BXnXBXmXBXBXbXBXBXBXBXBXBXBXBXBXBXBXBXBXBXBXBXBXBXBXBXBXBXBXBXBXBXBXBXBXBXBXBXBXBXBX",
"BXBXBXBXBXBXBXBXBX-X  t J S y X X     ! NXMXBXBXBXBXBXnXmXBXBXBXBXBXBXBXBXBXBXBXBXBXBXBXBXBXBXBXBXBXBXBXBXBXBXBXBXBXBXBXBXBXBXBX",
"BXBXBXBXBXBXBXBXNXR.  5 - t S H 7 ^ :XC zXBXbXBXBXBXBXBXBXBXBXBXBXBXBXBXBXBXBXBXBXBXBXBXBXBXBXBXBXBXBXBXBXBXBXBXBXBXBXBXBXBXBXBX",
"BXBXBXBXBXBXBXBXBX1X  & u - o - X C R % {.NXBXmXBXBXBXBXBXBXBXBXBXBXBXBXBXBXBXBXBXBXBXBXBXBXBXBXBXBXBXBXBXBXBXBXBXBXBXBXBXBXBXBX",
"BXBXBXBXBXBXBXBXNXBX8XA X + ; t z y u & !.BXBXMXBXBXBXBXBXBXBXBXBXBXBXBXBXBXBXBXBXBXBXBXBXBXBXBXBXBXBXBXBXBXBXBXBXBXBXBXBXBXBXBX",
"BXBXBXBXBXBXBXBXBXNXNXBX2X^ 3 & * u r   :XNXBXBXBXBXBXBXBXBXBXBXBXBXBXBXBXBXBXBXBXBXBXBXBXBXBXBXBXBXBXBXBXBXBXBXBXBXBXBXBXBXBXBX",
"BXBXBXBXBXBXBXBXBXMXBXBXBXBXhX<X'.T.R.3XMXMXBXNXBXBXBXBXBXBXBXBXBXBXBXBXBXBXBXBXBXBXBXBXBXBXBXBXBXBXBXBXBXBXBXBXBXBXBXBXBXBXBXBX"
};
