/* XPM */
static char *_1934_36c573c5890d88ff9dc02fb200c4a52c7d5a8964ecd469e1d4e410be8b66ca24[] = {
/* columns rows colors chars-per-pixel */
"64 64 141 2 ",
"   c #46311E",
".  c #553119",
"X  c #52381D",
"o  c #4E3727",
"O  c #563723",
"+  c #593620",
"@  c #5B3C24",
"#  c #5A3F2C",
"$  c #5D4A3A",
"%  c #65472F",
"&  c #6B462C",
"*  c #714A2D",
"=  c #7A4F2D",
"-  c #7E502E",
";  c #634634",
":  c #644A34",
">  c #6A4B33",
",  c #654D3C",
"<  c #6B4E3A",
"1  c #744E33",
"2  c #744E39",
"3  c #6D5235",
"4  c #6D523C",
"5  c #745336",
"6  c #7D5333",
"7  c #74543C",
"8  c #7B553C",
"9  c #75593D",
"0  c #7D5A3D",
"q  c #645143",
"w  c #6D5543",
"e  c #6C5648",
"r  c #735643",
"t  c #7B5641",
"y  c #765B43",
"u  c #7C5B44",
"i  c #755C4B",
"p  c #7D5E49",
"a  c #7B6246",
"s  c #7D624D",
"d  c #7C6452",
"f  c #7F6C5D",
"g  c #7F6E62",
"h  c #82563C",
"j  c #835A3D",
"k  c #8B5C3C",
"l  c #835D43",
"z  c #8A5D43",
"x  c #825F4C",
"c  c #8D5F48",
"v  c #846146",
"b  c #8B6245",
"n  c #84634C",
"m  c #8B654C",
"M  c #85694D",
"N  c #8D694E",
"B  c #926244",
"V  c #92654B",
"C  c #99674E",
"Z  c #936A4D",
"A  c #996C4E",
"S  c #94714F",
"D  c #9B724F",
"F  c #846551",
"G  c #896651",
"H  c #856A53",
"J  c #8D6B53",
"K  c #836B5C",
"L  c #8C6E5A",
"P  c #936D53",
"I  c #9A6E53",
"U  c #926E59",
"Y  c #986F5A",
"T  c #8E7155",
"R  c #84725C",
"E  c #8D725D",
"W  c #8D785D",
"Q  c #947256",
"!  c #9B7355",
"~  c #9C7956",
"^  c #94735B",
"/  c #9B755B",
"(  c #96795C",
")  c #9C795D",
"_  c #A1694E",
"`  c #A1704F",
"'  c #A26F53",
"]  c #A37555",
"[  c #A97656",
"{  c #A57857",
"}  c #AB7956",
"|  c #A2765B",
" . c #AA765B",
".. c #A47A5C",
"X. c #AA7C5C",
"o. c #B0745A",
"O. c #B27C5D",
"+. c #BA7E5D",
"@. c #856F62",
"#. c #896F60",
"$. c #827064",
"%. c #8C7463",
"&. c #8F796B",
"*. c #947561",
"=. c #9B7661",
"-. c #957A63",
";. c #9C7B62",
":. c #937569",
">. c #947B6B",
",. c #9B7D69",
"<. c #A57762",
"1. c #A87560",
"2. c #A37C62",
"3. c #AB7D62",
"4. c #A37E68",
"5. c #AF7F68",
"6. c #B37E62",
"7. c #BA7E62",
"8. c #AD805F",
"9. c #B2805E",
"0. c #9D8165",
"q. c #9E816B",
"w. c #9D8271",
"e. c #A48165",
"r. c #AB8164",
"t. c #A4836A",
"y. c #AB846B",
"u. c #A6886E",
"i. c #AC896D",
"p. c #B38264",
"a. c #BA8164",
"s. c #B4846A",
"d. c #B9846A",
"f. c #B48A6D",
"g. c #A28571",
"h. c #AC8771",
"j. c #AC8A72",
"k. c #B38C72",
"l. c #BB8E75",
"z. c #B39075",
"x. c #C48469",
/* pixels */
"2./ ..^ s M ;.;.| { {  ...| / / 2.2.2.) ;...) ( ..v Q 8.I ! / I / *.^ =.=.^ =./ ! Q ) r.) 2.r.0 N ) 2.( Q Q Z Z ! I  .| 3.p.3. .",
") ~ t.;.s F =.Q / ~ ] ] | / / / Y / Y / / ) ) ( ) 0 Z ( ! / / ! Q Y U ^ Q Q ^ ^ 4.;.<.2...2.2.l J ( ) ( / / Q ! I ] 1... . . .| ",
";.) j.q.s s ,.^ / | ~ ~ ! / ) ;.Q ! ..;.;.e.2.e.t.v Q t.;...=.) ^ =.^ *.^ / ^ ^ ) / / 2.) <.2.l Q 0.e.;.;.) Q Q Q 2.3.2.| | 1.3.",
"t.-.q.q.i s q.-./ ) | / ! ) 4.;.2.2.3.r.e.e.e.t.e.v Q i.y.r.2.2.4.=.4.=.=.;.) =.) 2.;.y.y.s.2.v T ( ,.) ;.;.=./ ;.e.) y.<.4.2.5.",
"Q a H s : w H F m N V m G P L G V Z ! A Z N N N M * l J Q ~ Y Q U L ^ G n L m P 8 l t m m v l & 7 n x G J L J U J P t P P P ! / ",
"Q M H H s d L M J Q Z Z P / U n Z A A ! ! S Z Z N 0 M J U Q L Y Y J =.n v U m U L Q P P Q P U v n G J J U U P / U U 5 Q U / / P ",
"y.y.u.q.w.g.t.q.e.e.r.r.i.k.4.Y y.f.f.p.s.i.2.e.u.0.t.0.,.t.4.4.t.;.h.Q L t./ t.4.y.4.4.2.4.4.4.y.h.t.4.y.t.2.i.y.y.b k.y.f.i.r.",
"~ e.( T -.;.E / ! ! ] { 3.3.Y l 8.8.8.8.8.0.~ Q N S Q J G / U ^ / L ;.v u ^ G ) P ;.Q =.;.Q =.=.^ ..! / <.2...y.2.r.j y.......| ",
"{ ~ ) / Q Q ) e.{ ] } } 8.r.! h 3.X.X.} ) ) Q Q Q Q ^ ^ ^ ^ *.=.=./ ^ m 8 U U U *.=.^ *.^ *./ / ....X.X.....X.X.8...b 8.{ } { { ",
"D D ! Q Q Q ) ..X.} 9.9.9.p.| k 3.X. .{ ) ~ / ~ Q Q ^ T U U Y ^ =.;.) L p ^ ^ =.^ =.=.=.=.*.*./ ) | | ] ] { ..X.8.} B 8.8.{ 8.] ",
"! ! ~ Q Q / ..2.X.} } } } 8.] j 3.{ I I ! ~ Q Q ;.;.;./ ^ / / ;.Q ^ ^ J t Y U ^ ^ ^ *.*.*.U L P I I I A C I { ..X.] k } 9.} } D ",
"] { ) ) ) ) 2.2.8.8.X.8.X.9.! 0 y.3...! / | ) ~ ( ) Q Q U U U ^ ^ ) ) U p ^ *.=.*.^ *.=.*.^ ^ L ! ! ! { ! { | X.r.{ k X.p.8.} ] ",
"~ ~ ) ( ( ( ^ Q ) { X.X.r.r.Q 6 5.2.....) ) / ( ) ) ) ) ) / / / / =.=.G t ^ ^ / *.^ *.E *.E E L U Q Q / Q Q / ..r.| h ..r...{ ] ",
"( ( -.-.-.%.%.L Q I / ..r.y.Q 2 2.2.2.2.2.) ) ) Q Q Q / Q I / I / =./ m t ^ *./ -.*.U *.*.*.*.^ ^ ( ^ ^ ^ / ;.2.y.Y 6 <.r.| | ! ",
"^ ( E %.%.%.#.L L I / ) 4.t.L 2 =.....2.) ) ) ( 8.e.e.e.2.3.3.5.4.;.Q n t / *.*.*.^ L ^ *.-.:.*.-.%.-.-.*.-.=.,.=.G 2 =.4.<.<.<.",
"F M s s s d F n a u v m J L i O 9 u v v j a v v a v l j z z c V V l 8 & @ t t l 8 t r p p p y r > y a s n y t 7 7 & . l m m m G ",
"4.e./ / ;.l J e.2.2.) Y Y ^ *.=.;.0.( ~ ( ( Q ( ( ~ m b r.O.7.o. . .....| ) | ) 2.2.=./ Q ( -.9 ( t.) ~ / ! | ! ) ) 8.8.0.8.0...",
"2.2.<...r.b A r.2.....) ) =.;.;.0.( 0.( Q Q ^ ;.( 0.Q Z f.a.x.7.7.6.5.....~ ) ! P Q Q / Q W 0.9 2.s.r.3.r.3.r...X.8.r.r.8.8.8.8.",
"/ ) ..2.r.b Z X.| { ) ) ) ) / =.( ( ( ( ^ Q ^ ( T ^ v j X. .7.6.6.3.2...) ~ ( Q P / ! / Q ( ( 3 ! 3.| ..X...2.| ) | ......} 0.~ ",
"Q ) / ) 2.z V ..~ ! { ) / P U P Q Q Q Q Q ^ ^ ^ W ( v u ....7.6. .1...) ) Q ( Q P I ! ) ( 0.( 5 I X.....3.......{ ) ~ ) ) ) ) ~ ",
"/ ;.) ) 2.z V 2.| | | | / / P U ^ ^ ^ Q ^ Y *.*.( ( a 9 <...6.5.3.2.2.=.( Q T N P Y Y 2...e.e.0 Z X.{ ..3...2.! ! / / / ) ) / / ",
"/ ;.=.) 3.v Z e.! | | ) ../ / / ( ^ ^ ^ ^ ^ / *.T T a 7 Q Y 1.| / =.) Q ( ^ Q Q I !  .3.2.e.e.0 V ..| { | I ! I P P Q Q Q ^ ^ ( ",
"^ =.^ / 2.v V r.| { ] ~ ! / ) / Q ( *.Y Y Y ^ *.W W a y =.Q <.) U ^ ^ T W ( ) ;.2.2.1.3...3...6 C 3.X.2.3...2.4.2.=.=.=.=.*.*.*.",
"^ ^ / ) r.b Z r...| | / ! ! ! / / ^ ^ U U P L ^ T R a 9 ^ U / Y Q ^ ^ E ( -.;.2.y.5.3.5.X.y.r.j A r.X.X.3.<.2.2./ / ^ ^ L L L L ",
"Q ^ 4.y.) m P f.3...3.2.! 2.;./ ^ ;.Q / Y P Y ^ -.W 9 4 L ^ J =.*.-.0.-.-.0.0.0.5.s.s.5.5.f.| j I { r.r.r.3.2.;.;.U ^ ;.L L L E ",
"P G Y P b 6 6 b I A ! ! P I P G n Q G G m l l l y 7 % X > 7 t x n M H s a 9 9 a x P Y I Y I v & z V I ! P U I N U n J F n H F H ",
"/ ~ / / ! b B I I Z P P J J Z x 8 U P P I P S m M a 9 9 L L G U G M G M a 3 9 G J V V m V c l j z Z ! A P P Q J P m G s n W L H ",
"r.y.s.s.f.f.f.f.f.s.y.y.;.4.4.*.n y.k.f.f.f.z.e.( 0.0.0.t.,.Y Y y.;.4.t.0.H 0.z.k.y.3.1.<.4.2.y.4.r.y.y.y.y.y.y.4.;.e.J ;.j.u.q.",
"! ! ~ ! { ..| ~ 2./ ! P L U ^ H 7 / e...| | / Z ~ ~ Q T T ^ Y Y U m m M R 9 T 0./ Y Y / / L G L Q Q Q Q Q Q Q Q Q S T 5 N ( ( T ",
"3.r.8.} X.3.8.| ..! Q L H ^ *.L 9 2.y.r.2.} | D ~ ( Q ( Q Q =.=.) ! P Q Q 3 T ( ;.=.) =.^ ( ^ ( ) / / / ) / / ) ( ( ( 9 ( ( ( ( ",
"] ] ] ] { { { { / P N G G L #.H 7 ~ ..e.} ~ { ! S Q ~ ) ;.2.<./ <.2.) ( Q 3 ( ^ 2.=.*.P U ^ -.-.;.Q ( ( Q Q ( ) Q Q Q 9 ~ S Q ( ",
"]  .X.8.X.X.X.8.3.| ! Q Q ( *.H 7 ( ) ..) D ] ! ) S Q ~ / 2.3.....6.r.) ) 5 ) ;./ =.| / / ;.) / ) ! A ! ~ ! Q ~ S ! ~ 9 0.Q S 0.",
"....~ ..~ } s.3.X.6.s.3.| ) ) M : E ~ T ~ { D ~ ~ D S ..} } O.} O.6.O.X.X.= ` ] 8.~ { ` } } +.7.O.7.[ [ ] ] ' { ~ ) S 5 e.( ( ( ",
" .X...8.e...r.{ 3.X.X. .{ ..~ Q > E -.T ( Q S ~ 0.~ 0.8.] } +.+.O.O.O.X.X.h ] { { { 8.8.9.O.+.9.+.a.+.o.O. . . .~ ..( 8 ;.Q ( Q ",
"..{ / { ~ ~ / ! 3. .3. ...e.2.T w -.q.( ) ( ~ ;.( ( ) ;...X.6.7.7.6.p.6.} - D 8.{ 8.X.8.9.6.O.o.a.7.+.6.6.3.X.2.2...L 7 ;.^ ( W ",
"5.2.2.) ) ;...5.2. .5.r.3.r./ M 4 R -.^ ( N M J T Q ,./ y.r.p.6.d.6.s.s.8.j S 0.r.e.r.e.p.p.s.d.d.6.d.p.6.3.<.<.2.;.N 7 ( ( -.0.",
"z l l 8 l v 8 m c z c V x c 9 > ; , r y t 9 7 7 y i y : G G V z V B V Z b * j m j 0 j z c V V C I z Y | I I P Z x l 8 > p s n F ",
"Y I ) I / / l Z 5.1.1.1.| ..) U E %.=.-.=.;.-.-.0.%.H < U =.<.Y | ] ....~ Q Q e./ / ) ..<.<...| V 6 Y ! P ..P Y / =.^ Y -.;.^ ^ ",
"d.y.l.s.l.f.V <.x.d.5.d.s.y.i.t.g.q.4.t.;.4.t.4.g.g.%., ,.,.y.2.3.3.r.r.8.r.8.i.k.k.f.k.f.l.s.r./ l 5.f.3.k.5.y.5.4.3.4.4.4.=.;.",
"3.X.s...r.<.z 1.k.6.7.d.3.X.3...2.=.=.;./ U ^ U *.:.#., *.=.5...3. .8...{ y.~ 8...~ Q I | { 3.3.I 8 ) 2.Y 5...<.2.3.<...Y / ! ) ",
" .6.X.3.p.8.k  .d.7.7.6.3. ...~ 2./ ! ! | | I L *.*.K ; Y =..... . . .X.8.X.8.{ 8.~ Z Z Z ! ] ..Z 0 / ~ <.3.1.1.3.3... .| ] I | ",
" .o.O.8.p.p.B a.a.7.7.7.O.X.] ~ / ! I ! ! | ! / =.E L < *.<.| { ] [ } X.8.8.{ 8.~ D A Z Z I { | Z 0 ..| X.3.3.1.6.3. .[ ] ] ..{ ",
"] [  .X.8.X.k X.6.7.6.o.} ] D A I N b V Z I I Y J L L : Q / ! A D ` ] } 8.8.} | ! Z Z Z P I P ! m 6 ) / | | 1.1. . .' I ] ] { { ",
"[  .X.8.X.X.k X.6.7.7.6.X. .{ ! P P I Z I / Y U K L #.> *.) ~ ! ] ] X.8.r.r.e.2.~ ~ ! ! / / / ^ M 9 ;.=.<.| Y 1.1. .I ' { ..X...",
"I ) ) ..~ ) 6 | 5.5.6.3...) Q Q ^ ^ Q P / Y L L F K f ; R ( ( S S ! ~ ..2.2.) / / Q Q L ^ ^ ^ T M 4 -.^ Y Y Y 1.| | Y ! ! / ) ~ ",
"Y / / ( ;.0.9 / 1.4.2.<.2.) ( W E *.*.*.^ ^ L K f g f $ R ( ~ ~ ~ ) ) ;.e.;.;.=.*.*.*.%.%.%.E R d 4 %.L #.:.:.1.=.=.<.=./ / Q ^ ",
"=.^ *.*.,.,.y *.=.Y =.=.=.*.E W %.%.%.#.#.#.#.@.g $.g $ R W ( 0.;.;.;.,.,.;.,.>.%.*.>.>.>.>.%.$.f q $.%.:.:.Y :.=.=.4.=.-.( -.0.",
"x p u u s s @ 8 t 8 t t t t r 7 y r 2 < 2 w r r q e e   9 9 0 a s a u u y u y u r r p d d i w , $ o i i x x p p x F F s u a s d ",
"*.=.,.4.t.4.2.2.3.2...3. .5.s.V V 3.3.5.4.1.<.=.t.y.t.y.t.e...) 2.<.<.G 8 <.y.s.i.s.i.p.r.i.y.i.g.t.4.,.=.=.=.=.<.4.l J h.;.=.;.",
"^ *.) ;.) ;...2.5.6.p.a.6.a.d._ ' d.5.d.d.6.d.p.6.r.r.r.r.8.8...y.4.4.| l <.5.5.f.p.f.r.8.9.8.r.3.3.2.<.) <.2.2.<.2.l m y.=./ / ",
"Q T ^ ^ / ;.2...2.3.y.s.X.6.d.C  .d.d.p.d.6.d.p.p.8.3. .......X.<.2.2.Y z | 1.| ..} ....8.8.{ ....<.) / <.;.2.2.;.2.l P y.! Y U ",
"T T L ^ Q / ) / ..<.2.3...X.p.C ' a.6.O.1. .O.X.X.9.8.X.} } { ..P P / P h Y / / .. .} ..8.~ ..| / / / / ! ) <.2...y.z J 5.! P U ",
"^ W T ^ ^ ) / ( / / ..2...3.y.Z ' a.O.X.[ [  .] X.X.X.X.X...{ | / Y =.Y l =.1.<.2...| | / | ~ ~ | ! / Y / I Y I ) 5.l V t./ / I ",
"Q ^ W ( ^ ( Q Q ^ / ^ ;.=.4.h.Z I a.O. .[ ' ] ' _ ] |  .} { ..| =.^ =.^ l =.<.5...Y I Z I Q I N ) =.! Y / Y Y P ) y.m P y...) / ",
"( ^ T T ( ^ T L L P J Y ^ 4.h.G I O.1. . .I ] I D I ! ! / / ~ / =.L *.^ l / <.4.2.) Y P ^ Q ) Q ) ) ) ) / / ! / / 5.m V 3...| ! ",
"( T J N L T T L L G M L ^ -.5.x P 5.1...| I =./ ! Q Q Q Q Q P U ^ L ^ ^ p / 4.4.2./ J m Q Q Q ) =...=.2.) 2.2.2./ y.m P 2...../ ",
"Q 0.T Q ;.Q T ^ G L G G ^ ;.^ M P 2.5.4.2.4.<.=.=.^ =.E L *.^ *.( *.;.T p Y j.=.4.=./ =./ ^ t.;.e.e.2.2.t.e.2.e.y.! V S 8.r.8.) ",
"J Q M J J n L L n m M n M G F t n J J x x x G F p r u p F L L L E F u % X t ;.=./ / U / ^ ^ ;.G m J N J Q U Z I m z h b Z ! ! Z ",
"Q ^ ^ ^ n n / Q ( ) / Q Q Q Q J J J G n x G H K H r p K L >.:.%.E H T W m U =.U Y / Y Q Q U J 5 v m m m P Z Z P Z Z Z S A D Z A ",
"i.u.j.z.Q Q l.h.e.y.y.e.t.y.y.y.t.y.y.u.j.k.j.4.,.L *.,.>.w.>.-.u.0.u.j.y.i.j.t.t.j.t.t.4.t.;.t ) t.y.y.i.i.i.i.l.k.f.f.f.f.8.r.",
";./ ;.4.8 l 2.) ..2.2.2...3.3.r.~ / / ..e.e.;.^ =.p U ,.*.-.:.-.( M N Q L J I Q P / U I Q 2.4.l Q ;.;.) ..0.) ~ ;.~ | ~ ] { { { ",
"2.;.4.4.l l 2...<.2.X.....{ ..2.e.8...2.e.e.2.;.Q t G =.U ^ *.^ ( Q ( ;.2.) Q Q Y =.Q Q / e.t.M / u.e.;.0...) ....8...{ { 8.8.8.",
"<.=.Y / c x <.| 3...X.X. .X. ...X.{ X.{ ..{ ....2.8 J 2./ / ;.( ( ( T J Q U P / P ! Y Q Q ) ) u L ;.( U Q Q Q S ~ ) 8.~ { { ] D ",
";.<.Y / c m 3...2.{ ] { X.[ ] [ } { { } X.X.}  ...1 l ../ ) ;.Q Q ;.) ~ ) / ! / Y ..) 2.2.2.e.m m Q ! M N N N N V ! ..{ } ] { { "
};
